<mxfile host="app.diagrams.net" modified="2021-12-25T05:26:08.378Z" agent="5.0 (Windows NT 10.0; Win64; x64) AppleWebKit/537.36 (KHTML, like Gecko) Chrome/96.0.4664.110 Safari/537.36" etag="8ah8TVQ37TQD7BRtVuu2" version="16.0.0" type="github">
  <diagram id="DQeKWYHpqEsVbRJOcOmq" name="Page-1">
    <mxGraphModel dx="1504" dy="684" grid="1" gridSize="10" guides="1" tooltips="1" connect="1" arrows="1" fold="1" page="1" pageScale="1" pageWidth="827" pageHeight="1169" math="0" shadow="0">
      <root>
        <mxCell id="0" />
        <mxCell id="1" parent="0" />
        <mxCell id="R8F5AGqqBN99lfVqk2qO-24" style="edgeStyle=orthogonalEdgeStyle;rounded=0;orthogonalLoop=1;jettySize=auto;html=1;exitX=0;exitY=0.75;exitDx=0;exitDy=0;entryX=0;entryY=0.5;entryDx=0;entryDy=0;fontSize=20;" edge="1" parent="1" target="R8F5AGqqBN99lfVqk2qO-22">
          <mxGeometry relative="1" as="geometry">
            <mxPoint x="240" y="355" as="sourcePoint" />
          </mxGeometry>
        </mxCell>
        <mxCell id="R8F5AGqqBN99lfVqk2qO-1" value="" style="whiteSpace=wrap;html=1;aspect=fixed;" vertex="1" parent="1">
          <mxGeometry x="240" y="20" width="430" height="430" as="geometry" />
        </mxCell>
        <mxCell id="R8F5AGqqBN99lfVqk2qO-3" value="" style="endArrow=classic;html=1;rounded=0;" edge="1" parent="1">
          <mxGeometry relative="1" as="geometry">
            <mxPoint x="80" y="264.90999999999997" as="sourcePoint" />
            <mxPoint x="240" y="265" as="targetPoint" />
            <Array as="points">
              <mxPoint x="170" y="264.40999999999997" />
            </Array>
          </mxGeometry>
        </mxCell>
        <mxCell id="R8F5AGqqBN99lfVqk2qO-4" value="baud" style="edgeLabel;resizable=0;html=1;align=center;verticalAlign=middle;fontSize=20;" connectable="0" vertex="1" parent="R8F5AGqqBN99lfVqk2qO-3">
          <mxGeometry relative="1" as="geometry" />
        </mxCell>
        <mxCell id="R8F5AGqqBN99lfVqk2qO-5" value="" style="endArrow=classic;html=1;rounded=0;" edge="1" parent="1">
          <mxGeometry relative="1" as="geometry">
            <mxPoint x="90" y="410" as="sourcePoint" />
            <mxPoint x="240" y="410" as="targetPoint" />
            <Array as="points">
              <mxPoint x="170" y="410" />
            </Array>
          </mxGeometry>
        </mxCell>
        <mxCell id="R8F5AGqqBN99lfVqk2qO-6" value="check_mode" style="edgeLabel;resizable=0;html=1;align=center;verticalAlign=middle;fontSize=20;" connectable="0" vertex="1" parent="R8F5AGqqBN99lfVqk2qO-5">
          <mxGeometry relative="1" as="geometry" />
        </mxCell>
        <mxCell id="R8F5AGqqBN99lfVqk2qO-8" value="" style="endArrow=classic;html=1;rounded=0;" edge="1" parent="1">
          <mxGeometry relative="1" as="geometry">
            <mxPoint x="90" y="30" as="sourcePoint" />
            <mxPoint x="240" y="30" as="targetPoint" />
            <Array as="points">
              <mxPoint x="170" y="30" />
            </Array>
          </mxGeometry>
        </mxCell>
        <mxCell id="R8F5AGqqBN99lfVqk2qO-9" value="bit_length" style="edgeLabel;resizable=0;html=1;align=center;verticalAlign=middle;fontSize=20;" connectable="0" vertex="1" parent="R8F5AGqqBN99lfVqk2qO-8">
          <mxGeometry relative="1" as="geometry" />
        </mxCell>
        <mxCell id="R8F5AGqqBN99lfVqk2qO-10" value="" style="endArrow=classic;html=1;rounded=0;" edge="1" parent="1">
          <mxGeometry relative="1" as="geometry">
            <mxPoint x="90" y="70" as="sourcePoint" />
            <mxPoint x="240" y="70" as="targetPoint" />
            <Array as="points" />
          </mxGeometry>
        </mxCell>
        <mxCell id="R8F5AGqqBN99lfVqk2qO-11" value="rx" style="edgeLabel;resizable=0;html=1;align=center;verticalAlign=middle;fontSize=20;" connectable="0" vertex="1" parent="R8F5AGqqBN99lfVqk2qO-10">
          <mxGeometry relative="1" as="geometry" />
        </mxCell>
        <mxCell id="R8F5AGqqBN99lfVqk2qO-40" style="edgeStyle=orthogonalEdgeStyle;rounded=0;orthogonalLoop=1;jettySize=auto;html=1;exitX=1;exitY=0.5;exitDx=0;exitDy=0;fontSize=15;" edge="1" parent="1" source="R8F5AGqqBN99lfVqk2qO-13" target="R8F5AGqqBN99lfVqk2qO-39">
          <mxGeometry relative="1" as="geometry">
            <Array as="points">
              <mxPoint x="540" y="70" />
            </Array>
          </mxGeometry>
        </mxCell>
        <mxCell id="R8F5AGqqBN99lfVqk2qO-13" value="移位寄存器" style="rounded=0;whiteSpace=wrap;html=1;fontSize=20;" vertex="1" parent="1">
          <mxGeometry x="310" y="50" width="170" height="40" as="geometry" />
        </mxCell>
        <mxCell id="R8F5AGqqBN99lfVqk2qO-16" value="" style="endArrow=classic;html=1;rounded=0;fontSize=20;entryX=0;entryY=0.5;entryDx=0;entryDy=0;" edge="1" parent="1" target="R8F5AGqqBN99lfVqk2qO-13">
          <mxGeometry width="50" height="50" relative="1" as="geometry">
            <mxPoint x="230" y="70" as="sourcePoint" />
            <mxPoint x="590" y="160" as="targetPoint" />
          </mxGeometry>
        </mxCell>
        <mxCell id="R8F5AGqqBN99lfVqk2qO-34" style="edgeStyle=orthogonalEdgeStyle;rounded=0;orthogonalLoop=1;jettySize=auto;html=1;exitX=0.5;exitY=1;exitDx=0;exitDy=0;entryX=0.4;entryY=0.028;entryDx=0;entryDy=0;entryPerimeter=0;fontSize=15;" edge="1" parent="1" source="R8F5AGqqBN99lfVqk2qO-17" target="R8F5AGqqBN99lfVqk2qO-21">
          <mxGeometry relative="1" as="geometry" />
        </mxCell>
        <mxCell id="R8F5AGqqBN99lfVqk2qO-17" value="起始位检测" style="rounded=0;whiteSpace=wrap;html=1;fontSize=20;" vertex="1" parent="1">
          <mxGeometry x="310" y="120" width="120" height="40" as="geometry" />
        </mxCell>
        <mxCell id="R8F5AGqqBN99lfVqk2qO-20" value="" style="edgeStyle=elbowEdgeStyle;elbow=horizontal;endArrow=classic;html=1;rounded=0;fontSize=20;entryX=0;entryY=0.5;entryDx=0;entryDy=0;" edge="1" parent="1" target="R8F5AGqqBN99lfVqk2qO-17">
          <mxGeometry width="50" height="50" relative="1" as="geometry">
            <mxPoint x="260" y="70" as="sourcePoint" />
            <mxPoint x="590" y="160" as="targetPoint" />
          </mxGeometry>
        </mxCell>
        <mxCell id="R8F5AGqqBN99lfVqk2qO-37" style="edgeStyle=orthogonalEdgeStyle;rounded=0;orthogonalLoop=1;jettySize=auto;html=1;exitX=0.75;exitY=0;exitDx=0;exitDy=0;entryX=0.75;entryY=1;entryDx=0;entryDy=0;fontSize=15;" edge="1" parent="1" source="R8F5AGqqBN99lfVqk2qO-21" target="R8F5AGqqBN99lfVqk2qO-13">
          <mxGeometry relative="1" as="geometry">
            <Array as="points">
              <mxPoint x="438" y="240" />
              <mxPoint x="438" y="165" />
            </Array>
          </mxGeometry>
        </mxCell>
        <mxCell id="R8F5AGqqBN99lfVqk2qO-21" value="波特率计数器" style="rounded=0;whiteSpace=wrap;html=1;fontSize=20;" vertex="1" parent="1">
          <mxGeometry x="310" y="240" width="150" height="50" as="geometry" />
        </mxCell>
        <mxCell id="R8F5AGqqBN99lfVqk2qO-22" value="位计数器" style="rounded=0;whiteSpace=wrap;html=1;fontSize=20;" vertex="1" parent="1">
          <mxGeometry x="310" y="330" width="150" height="50" as="geometry" />
        </mxCell>
        <mxCell id="R8F5AGqqBN99lfVqk2qO-26" value="" style="endArrow=classic;html=1;rounded=0;fontSize=20;" edge="1" parent="1">
          <mxGeometry width="50" height="50" relative="1" as="geometry">
            <mxPoint x="240" y="264.40999999999997" as="sourcePoint" />
            <mxPoint x="310" y="264.90999999999997" as="targetPoint" />
          </mxGeometry>
        </mxCell>
        <mxCell id="R8F5AGqqBN99lfVqk2qO-27" value="&lt;font style=&quot;font-size: 15px&quot;&gt;T&lt;/font&gt;" style="text;html=1;align=center;verticalAlign=middle;resizable=0;points=[];autosize=1;strokeColor=none;fillColor=none;fontSize=20;" vertex="1" parent="1">
          <mxGeometry x="260" y="230" width="20" height="30" as="geometry" />
        </mxCell>
        <mxCell id="R8F5AGqqBN99lfVqk2qO-29" value="" style="endArrow=classic;html=1;rounded=0;fontSize=12;exitX=0.25;exitY=0;exitDx=0;exitDy=0;entryX=0.25;entryY=1;entryDx=0;entryDy=0;" edge="1" parent="1" source="R8F5AGqqBN99lfVqk2qO-22" target="R8F5AGqqBN99lfVqk2qO-21">
          <mxGeometry width="50" height="50" relative="1" as="geometry">
            <mxPoint x="540" y="200" as="sourcePoint" />
            <mxPoint x="590" y="150" as="targetPoint" />
          </mxGeometry>
        </mxCell>
        <mxCell id="R8F5AGqqBN99lfVqk2qO-30" value="" style="endArrow=classic;html=1;rounded=0;fontSize=12;exitX=0.75;exitY=1;exitDx=0;exitDy=0;entryX=0.75;entryY=0;entryDx=0;entryDy=0;" edge="1" parent="1" source="R8F5AGqqBN99lfVqk2qO-21" target="R8F5AGqqBN99lfVqk2qO-22">
          <mxGeometry width="50" height="50" relative="1" as="geometry">
            <mxPoint x="357.5" y="340" as="sourcePoint" />
            <mxPoint x="357.5" y="300" as="targetPoint" />
          </mxGeometry>
        </mxCell>
        <mxCell id="R8F5AGqqBN99lfVqk2qO-35" value="&lt;font style=&quot;font-size: 15px&quot;&gt;flag&lt;/font&gt;" style="text;html=1;align=center;verticalAlign=middle;resizable=0;points=[];autosize=1;strokeColor=none;fillColor=none;fontSize=20;" vertex="1" parent="1">
          <mxGeometry x="330" y="190" width="40" height="30" as="geometry" />
        </mxCell>
        <mxCell id="R8F5AGqqBN99lfVqk2qO-38" value="&lt;font style=&quot;font-size: 15px&quot;&gt;cnt_bit&lt;/font&gt;" style="text;html=1;align=center;verticalAlign=middle;resizable=0;points=[];autosize=1;strokeColor=none;fillColor=none;fontSize=20;" vertex="1" parent="1">
          <mxGeometry x="430" y="180" width="60" height="30" as="geometry" />
        </mxCell>
        <mxCell id="R8F5AGqqBN99lfVqk2qO-39" value="校验位构造和检验" style="rounded=0;whiteSpace=wrap;html=1;fontSize=20;" vertex="1" parent="1">
          <mxGeometry x="510" y="260" width="140" height="80" as="geometry" />
        </mxCell>
        <mxCell id="R8F5AGqqBN99lfVqk2qO-41" value="" style="endArrow=classic;html=1;rounded=0;fontSize=15;" edge="1" parent="1">
          <mxGeometry width="50" height="50" relative="1" as="geometry">
            <mxPoint x="540" y="70" as="sourcePoint" />
            <mxPoint x="770" y="70" as="targetPoint" />
          </mxGeometry>
        </mxCell>
        <mxCell id="R8F5AGqqBN99lfVqk2qO-42" value="rdata[bL:0]" style="edgeLabel;resizable=0;html=1;align=center;verticalAlign=middle;fontSize=20;" connectable="0" vertex="1" parent="1">
          <mxGeometry x="190" y="80" as="geometry">
            <mxPoint x="533" y="-26" as="offset" />
          </mxGeometry>
        </mxCell>
        <mxCell id="R8F5AGqqBN99lfVqk2qO-43" value="" style="endArrow=classic;html=1;rounded=0;fontSize=15;exitX=1;exitY=0.5;exitDx=0;exitDy=0;" edge="1" parent="1" source="R8F5AGqqBN99lfVqk2qO-39">
          <mxGeometry width="50" height="50" relative="1" as="geometry">
            <mxPoint x="540" y="200" as="sourcePoint" />
            <mxPoint x="800" y="300" as="targetPoint" />
          </mxGeometry>
        </mxCell>
        <mxCell id="R8F5AGqqBN99lfVqk2qO-44" value="vld" style="edgeLabel;resizable=0;html=1;align=center;verticalAlign=middle;fontSize=20;" connectable="0" vertex="1" parent="1">
          <mxGeometry x="180" y="310" as="geometry">
            <mxPoint x="533" y="-26" as="offset" />
          </mxGeometry>
        </mxCell>
        <mxCell id="R8F5AGqqBN99lfVqk2qO-48" value="" style="edgeStyle=segmentEdgeStyle;endArrow=classic;html=1;rounded=0;fontSize=15;exitX=-0.005;exitY=0.909;exitDx=0;exitDy=0;exitPerimeter=0;" edge="1" parent="1" source="R8F5AGqqBN99lfVqk2qO-1" target="R8F5AGqqBN99lfVqk2qO-39">
          <mxGeometry width="50" height="50" relative="1" as="geometry">
            <mxPoint x="540" y="190" as="sourcePoint" />
            <mxPoint x="590" y="140" as="targetPoint" />
          </mxGeometry>
        </mxCell>
        <mxCell id="R8F5AGqqBN99lfVqk2qO-49" value="" style="edgeStyle=segmentEdgeStyle;endArrow=classic;html=1;rounded=0;fontSize=15;entryX=0.5;entryY=0;entryDx=0;entryDy=0;" edge="1" parent="1" target="R8F5AGqqBN99lfVqk2qO-13">
          <mxGeometry width="50" height="50" relative="1" as="geometry">
            <mxPoint x="240" y="30" as="sourcePoint" />
            <mxPoint x="590" y="140" as="targetPoint" />
          </mxGeometry>
        </mxCell>
        <mxCell id="R8F5AGqqBN99lfVqk2qO-50" value="ASCII码转换" style="rounded=0;whiteSpace=wrap;html=1;fontSize=20;" vertex="1" parent="1">
          <mxGeometry x="560" y="120" width="70" height="100" as="geometry" />
        </mxCell>
        <mxCell id="R8F5AGqqBN99lfVqk2qO-51" value="" style="endArrow=classic;html=1;rounded=0;fontSize=15;" edge="1" parent="1">
          <mxGeometry width="50" height="50" relative="1" as="geometry">
            <mxPoint x="590" y="70" as="sourcePoint" />
            <mxPoint x="590" y="120" as="targetPoint" />
          </mxGeometry>
        </mxCell>
        <mxCell id="R8F5AGqqBN99lfVqk2qO-52" value="" style="endArrow=classic;html=1;rounded=0;fontSize=15;exitX=1;exitY=0.5;exitDx=0;exitDy=0;" edge="1" parent="1" source="R8F5AGqqBN99lfVqk2qO-50">
          <mxGeometry width="50" height="50" relative="1" as="geometry">
            <mxPoint x="540" y="70" as="sourcePoint" />
            <mxPoint x="770" y="170" as="targetPoint" />
          </mxGeometry>
        </mxCell>
        <mxCell id="R8F5AGqqBN99lfVqk2qO-53" value="&lt;span style=&quot;color: rgb(0 , 0 , 0) ; font-family: &amp;#34;helvetica&amp;#34; ; font-size: 20px ; font-style: normal ; font-weight: 400 ; letter-spacing: normal ; text-align: center ; text-indent: 0px ; text-transform: none ; word-spacing: 0px ; background-color: rgb(255 , 255 , 255) ; display: inline ; float: none&quot;&gt;fifo_input[bL:0]&lt;/span&gt;" style="text;whiteSpace=wrap;html=1;fontSize=15;" vertex="1" parent="1">
          <mxGeometry x="680" y="130" width="110" height="40" as="geometry" />
        </mxCell>
        <mxCell id="R8F5AGqqBN99lfVqk2qO-54" value="&lt;font style=&quot;font-size: 15px&quot;&gt;flag&lt;/font&gt;" style="text;html=1;align=center;verticalAlign=middle;resizable=0;points=[];autosize=1;strokeColor=none;fillColor=none;fontSize=20;" vertex="1" parent="1">
          <mxGeometry x="360" y="295" width="40" height="30" as="geometry" />
        </mxCell>
      </root>
    </mxGraphModel>
  </diagram>
</mxfile>
